<?xml version="1.0" encoding="utf-8"?>
<!-- Generator: Adobe Illustrator 27.7.0, SVG Export Plug-In . SVG Version: 6.00 Build 0)  -->
<svg version="1.1" id="dron" xmlns="http://www.w3.org/2000/svg" xmlns:xlink="http://www.w3.org/1999/xlink" x="0px" y="0px"
	 viewBox="0 0 180 180" style="enable-background:new 0 0 180 180;" xml:space="preserve">
<style type="text/css">
	.st0{fill:#EB7301;}
	.st1{fill:#F94C00;}
	.st2{fill:#E1DCDD;}
	.st3{fill:#FA4C01;}
	.st4{fill:#E3DDDC;}
	.st5{fill:#363A3F;}
	.st6{fill:#36393E;}
	.st7{fill:#F97C00;}
	.st8{fill:#363940;}
	.st9{fill:#E2DDDD;}
	.st10{fill:#EE7500;}
	.st11{fill:#F87A00;}
</style>
<path class="st0" d="M58,125.7l-25.8,12.1c0,0-2.9,1.5-1.2,3.9c0,0,14.5,10.1,26.9,15.1l24.3,9.6c0,0,9.2,3.4,20.5-2.1
	c0,0,28.3-10.4,44.9-22.1c0,0,3.6-2.4-1.5-5.2l-25.1-11.3L58,125.7L58,125.7z"/>
<path class="st1" d="M59.5,124.4c0,0,4.2,11.2,32.3,11.2c0,0,20.1,0,28.1-11.2l4.2,9.8c0,0,2.8,9.8-28.1,16.9
	c0,0-27.8,2.8-40.6-13.3c0,0-1.5-2.1,1.3-7.7L59.5,124.4L59.5,124.4z"/>
<path class="st2" d="M59.5,124.4c0,0,5.9,11.2,31.7,11.2c0,0,20.2,0,28.7-11.2l-4.2-14.1c0,0-23.9,21.1-52,0L59.5,124.4L59.5,124.4z
	"/>
<path class="st3" d="M111.4,96.3c0,0-5.6,8.4-21.1,8.4s-22.5-8.4-22.5-8.4l-4.2,14.1c0,0,2.8,8.4,26,9.4c14.7,0.6,26-9.4,26-9.4
	S111.4,96.3,111.4,96.3z"/>
<path class="st2" d="M105.8,82.2c0,0-2.8,5.3-16.2,5.5C76.3,87.9,73,82.2,73,82.2l-5.1,14.1c0,0,4.2,8.4,21.8,8.4s21.8-8.4,21.8-8.4
	S105.8,82.2,105.8,82.2z"/>
<path class="st3" d="M81.9,71h15.4H81.9L76,73.5l-3,8.7c0,0,3.3,5.3,16.7,5.5c13.3,0.2,16.2-5.5,16.2-5.5l-2.5-8.8L97.4,71"/>
<path class="st4" d="M81.9,71h15.4v-9.8l4.2-2.8v-5.6c0,0-0.5-3-12.2-2.9s-13.1,4.3-13.1,4.3v3.7l5.6,2.8C81.9,60.6,81.9,71,81.9,71
	z"/>
<path class="st5" d="M76.3,57.9L73,55.1v-5.6c0,0,4.7-5.3,10.3-5.3H96c0,0,8.4,1.2,9.8,5.5v5.5l-3,2.5l-1.2,0.5v-5.6
	c0,0-4.2-2.8-12.2-2.9c0,0-7.5,0.1-13,4.1C76.4,54,76.3,57.9,76.3,57.9z"/>
<path class="st4" d="M73,55.1v-5.6c0,0,4.7-5.3,10.3-5.3c0,0,20.4-1.6,22.2,4.8l0.3,6.2l5.6-5.2v-6c0,0-2.8-6.8-14.1-6.8
	c0,0-2.6-1.4-18.2,0c0,0-7.1,0-11.3,7v6.2C67.9,50.5,73,55.1,73,55.1z"/>
<path class="st6" d="M110.7,33.8l-10.8,3.6c0,0,14.3,1.6,11.5,12.7l4.2-3.6C115.6,46.5,115.6,38.8,110.7,33.8z"/>
<path class="st4" d="M121.3,42c0,0,0-6.1-4.2-10.3c0,0-2.6,1.5-6.2,2.1c0,0,4.8,6.5,4.8,12.7L121.3,42L121.3,42z"/>
<path class="st6" d="M129.7,31.7c0,0-7,4.2-12.6,0c0,0,4.2,5.6,4.2,9.8l8.4-7V31.7z"/>
<path class="st7" d="M129.7,31.7V26c0,0-1.4-1.4-4.2-1.4h-0.8v1.5h-2.6v-1.5c0,0-2.6-0.4-4.5,0.8l-0.1,0.5l-0.3,5.7
	C117.1,31.7,121.8,36.2,129.7,31.7L129.7,31.7z"/>
<path class="st6" d="M122.1,26.1h2.6v-3.3c0,0,1.7-1.9,1.3-2.8l0.1-0.6l-0.8-0.4c0,0,0-3.4-0.1-3.4c-0.1,0-3.4,0-3.4,0v3.7
	c0,0-0.6,0.1-0.7,0.6v1.6l0.5,0.2v0.6l0.4,0.5l-0.1,1.7l0.2,0.1L122.1,26.1L122.1,26.1z"/>
<path class="st7" d="M125.2,18.3l9.5,2.9l10.5-3.8c0,0,0.7-0.4-0.7-1.9l-9.2-3.1l-10.1,3.1L125.2,18.3L125.2,18.3z"/>
<path class="st7" d="M121.8,18.3l-9.5,2.9l-10.5-3.8c0,0-0.7-0.4,0.7-1.9l9.2-3.1l10.1,3.1L121.8,18.3L121.8,18.3z"/>
<path class="st7" d="M122,15.6c0,0-0.7-1.9,0.1-2.3h2.2c0,0,0.7,0,0.6,1l-0.1,1.3L122,15.6L122,15.6z"/>
<path class="st7" d="M54,15.9c0,0-0.4-1.9,0.3-2.3h2.6c0,0,0.8,0.3,0.8,1.3l-0.2,1H54z"/>
<path class="st7" d="M54.2,18.3l-9.5,2.9l-10.5-3.8c0,0-0.7-0.4,0.7-1.9l9.2-3.1l10.1,3.1L54.2,18.3L54.2,18.3z"/>
<path class="st7" d="M57.4,18.3l9.5,2.9l10.5-3.8c0,0,0.7-0.4-0.7-1.9l-9.2-3.1l-10.1,3.1L57.4,18.3L57.4,18.3z"/>
<path class="st7" d="M62.1,31.7v-5.6c0,0-1.4-1.4-4.2-1.4l-1-0.1v1.5l-2.4,0.1v-1.5c0,0-2.6-0.4-4.5,0.8L49.8,26l-0.3,5.7
	C49.5,31.7,55.1,36.6,62.1,31.7L62.1,31.7z"/>
<path class="st6" d="M68.5,33.8l10.8,3.6c0,0-14.3,1.6-11.5,12.7l-4.2-3.6C63.5,46.5,63.6,38.8,68.5,33.8z"/>
<path class="st4" d="M57.9,42c0,0,0-6.1,4.2-10.3c0,0,2.6,1.5,6.2,2.1c0,0-4.8,6.5-4.8,12.7L57.9,42L57.9,42z"/>
<path class="st6" d="M49.5,31.7c0,0,7,4.2,12.6,0c0,0-4.2,5.6-4.2,9.8l-8.4-7V31.7z"/>
<polyline class="st8" points="80.4,59.8 72.1,64.3 66.9,76.6 75.5,74 81.9,71 81.9,60.6 "/>
<polygon class="st9" points="58.4,79.8 66.9,76.6 72.1,64.3 63.1,68.2 "/>
<polygon class="st6" points="49.5,82.8 58.4,79.8 63.1,68.2 52.5,72.6 "/>
<path class="st9" d="M52.5,72.6l-14.5,6.3c0,0-4.5,2.9-12.7,0c0,0-1.2,0.3-1.6,1.3l-0.4,6.2c0,0,5.4,4.2,15.7,1.1l10.6-4.6
	L52.5,72.6L52.5,72.6z"/>
<path class="st10" d="M37.9,78.9l-0.1-6.3c0,0,0.2-1.3-3.7-1.9L28.6,71c0,0-3.1,1-2.9,2.1l0,5.8C25.7,78.8,31.8,81.5,37.9,78.9
	L37.9,78.9z"/>
<path class="st11" d="M32,59.3c0,0,1.9,0,2.1,2.7c0,0-3.5,1.7-4.3-0.5C29.8,61.5,29.6,59.6,32,59.3z"/>
<path class="st11" d="M29.9,63.9l-0.3,1.5l-17-8.4c0,0-0.8-1.2,0.9-1.6l7.7-5c0,0,2.2-1.2,4.6,0.2l4.7,9.6L30,61.7L29.9,63.9
	L29.9,63.9z"/>
<path class="st11" d="M34.1,62l0.1,3.7L45,68.7c0,0,3.6,0.3,7.1-2l6-2.4c0,0,0.7-0.8-0.3-1.6l-8.2-3.1c0,0-0.4-0.6-3.9,0L34.1,62
	L34.1,62z"/>
<polygon class="st8" points="97.4,61.2 97.4,71 112.2,77 107.1,64.3 99.6,59.7 "/>
<polygon class="st9" points="120.3,79.3 115.6,68.2 107.1,64.3 112.2,77 "/>
<polygon class="st8" points="128.9,82.2 126,72 115.6,68.2 120.3,79.3 "/>
<polygon class="st9" points="136.8,85.6 135.6,76.6 126,72 128.9,82.2 "/>
<path class="st8" d="M136.8,85.6c0,0,10.8,5.7,18.9,1v-6.1l-1.4-1.7c0,0-5.3,3.6-12.3,0.5l-6.4-2.8L136.8,85.6L136.8,85.6z"/>
<path class="st7" d="M146.1,71.2c0,0-3.7-0.7-4,2.1l-0.1,6c0,0,5.2,4.1,12.3-0.5v-5.1c0,0,0.4-1.3-2.3-2.6l-1.6,0L146.1,71.2
	L146.1,71.2z"/>
<path class="st7" d="M150.5,65.1l17.3-8.4l-9.2-6.6c0,0-1.6-1-4.9,0.7l-3.5,8.5l-0.3,0.3l-2.9-0.3c0,0-1.5,1.8-0.9,2.7L134,59.4
	c0,0-2-0.8-5,0.3l-4.3,1.5l-3.4,2.2l10.1,4.4c0,0,4,1.8,8-0.4l6.7-2.2L150.5,65.1L150.5,65.1z"/>
<path class="st8" d="M150.5,62.1c0,0-1.5-1-4.4,0.2v8.9l4.4,0L150.5,62.1L150.5,62.1z"/>
<path class="st6" d="M54.3,26.5h2.6v-3.3c0,0,1.7-1.9,1.3-2.8l0.1-0.6l-0.8-0.4c0,0,0-3.4-0.1-3.4c-0.1,0-3.4,0-3.4,0v3.7
	c0,0-0.6,0.1-0.7,0.6v1.6l0.5,0.2v0.6l0.4,0.5l0,1.7l0.2,0.1L54.3,26.5L54.3,26.5z"/>
<path class="st6" d="M34.4,70.9L34.1,62c0,0-3.5,1-4.3-0.3L29.3,71L34.4,70.9L34.4,70.9z"/>
</svg>
