<?xml version="1.0" encoding="UTF-8"?>
<svg id="dron" xmlns="http://www.w3.org/2000/svg" viewBox="0 0 160 160">
  <defs>
    <style>
      .cls-1 {
        fill: #fa4c01;
      }

      .cls-1, .cls-2, .cls-3, .cls-4, .cls-5, .cls-6, .cls-7, .cls-8, .cls-9, .cls-10, .cls-11, .cls-12 {
        stroke-width: 0px;
      }

      .cls-2 {
        fill: #363940;
      }

      .cls-3 {
        fill: #e1dcdd;
      }

      .cls-4 {
        fill: #f87a00;
      }

      .cls-5 {
        fill: #e2dddd;
      }

      .cls-6 {
        fill: #e3dddc;
      }

      .cls-7 {
        fill: #f94c00;
      }

      .cls-8 {
        fill: #36393e;
      }

      .cls-9 {
        fill: #363a3f;
      }

      .cls-10 {
        fill: #ee7500;
      }

      .cls-11 {
        fill: #f97c00;
      }

      .cls-12 {
        fill: #eb7301;
      }
    </style>
  </defs>
  <path class="cls-12" d="m48.01,115.74l-25.76,12.07s-2.85,1.52-1.16,3.9c0,0,14.54,10.06,26.91,15.09l24.26,9.65s9.17,3.4,20.52-2.11c0,0,28.34-10.4,44.86-22.09,0,0,3.6-2.38-1.5-5.23l-25.08-11.28h-63.07Z"/>
  <path class="cls-7" d="m49.48,114.38s4.21,11.24,32.3,11.24c0,0,20.12,0,28.09-11.24l4.21,9.83s2.81,9.83-28.09,16.85c0,0-27.82,2.81-40.6-13.34,0,0-1.54-2.11,1.27-7.73l2.81-5.62Z"/>
  <path class="cls-3" d="m49.48,114.38s5.89,11.23,31.74,11.23c0,0,20.23,0,28.66-11.23l-4.21-14.05s-23.88,21.07-51.97,0l-4.21,14.05Z"/>
  <path class="cls-1" d="m101.45,86.28s-5.62,8.43-21.07,8.43-22.47-8.43-22.47-8.43l-4.21,14.05s2.81,8.43,25.98,9.36c14.74.6,25.98-9.36,25.98-9.36l-4.21-14.05Z"/>
  <path class="cls-3" d="m95.83,72.24s-2.81,5.3-16.15,5.46c-13.34.16-16.67-5.46-16.67-5.46l-5.1,14.05s4.21,8.42,21.77,8.42,21.77-8.42,21.77-8.42l-5.62-14.05Z"/>
  <path class="cls-1" d="m71.95,61h15.45-15.45l-5.94,2.54-3.01,8.7s3.33,5.3,16.67,5.46c13.34.16,16.15-5.46,16.15-5.46l-2.53-8.83-5.9-2.41"/>
  <path class="cls-6" d="m71.95,61h15.45v-9.83l4.21-2.81v-5.62s-.52-2.99-12.2-2.9-13.08,4.3-13.08,4.3v3.72l5.62,2.75v10.39Z"/>
  <path class="cls-9" d="m66.33,47.86l-3.33-2.72v-5.57s4.73-5.26,10.35-5.26h12.64s8.43,1.22,9.83,5.53v5.48l-2.99,2.54-1.22.5v-5.62s-4.21-2.81-12.2-2.9c0,0-7.46.09-13,4.13l-.08,3.89Z"/>
  <path class="cls-6" d="m63,45.14v-5.57s4.73-5.26,10.35-5.26c0,0,20.44-1.63,22.16,4.8l.32,6.21,5.62-5.21v-5.98s-2.81-6.84-14.05-6.84c0,0-2.58-1.4-18.15,0,0,0-7.14,0-11.35,7.02v6.24l5.1,4.59Z"/>
  <path class="cls-8" d="m100.69,23.81l-10.75,3.61s14.32,1.64,11.51,12.7l4.19-3.59s-.08-7.77-4.95-12.72Z"/>
  <path class="cls-6" d="m111.29,31.96s-.01-6.08-4.23-10.29c0,0-2.58,1.47-6.21,2.14,0,0,4.76,6.5,4.78,12.72l5.65-4.56Z"/>
  <path class="cls-8" d="m119.7,21.67s-7.02,4.21-12.64,0c0,0,4.21,5.62,4.21,9.83l8.43-7.02v-2.81Z"/>
  <path class="cls-11" d="m119.7,21.67v-5.62s-1.4-1.4-4.21-1.4h-.84v1.47h-2.6v-1.47s-2.62-.38-4.52.78l-.12.53-.35,5.72s4.76,4.53,12.64,0Z"/>
  <path class="cls-8" d="m112.05,16.12h2.6v-3.26s1.74-1.9,1.31-2.83l.07-.59-.84-.39s0-3.42-.07-3.44-3.38,0-3.38,0v3.72s-.59.05-.72.59v1.65l.48.25v.59l.43.5-.05,1.68.16.06v1.47Z"/>
  <path class="cls-11" d="m115.19,8.26l9.49,2.94,10.47-3.76s.68-.38-.72-1.85l-9.17-3.09-10.13,3.1.07,2.65Z"/>
  <path class="cls-11" d="m111.76,8.26l-9.49,2.94-10.47-3.76s-.68-.38.72-1.85l9.17-3.09,10.13,3.1-.07,2.65Z"/>
  <path class="cls-11" d="m112.02,5.6s-.7-1.92.05-2.29h2.22s.7,0,.63.98l-.1,1.3h-2.8Z"/>
  <path class="cls-11" d="m43.98,5.95s-.4-1.92.35-2.29h2.61s.84.34.77,1.33l-.18.96h-3.55Z"/>
  <path class="cls-11" d="m44.19,8.26l-9.49,2.94-10.47-3.76s-.68-.38.72-1.85l9.17-3.09,10.13,3.1-.07,2.65Z"/>
  <path class="cls-11" d="m47.42,8.26l9.49,2.94,10.47-3.76s.68-.38-.72-1.85l-9.17-3.09-10.13,3.1.07,2.65Z"/>
  <path class="cls-11" d="m52.11,21.69v-5.62s-1.4-1.4-4.21-1.4l-1.04-.06v1.47l-2.4.06v-1.47s-2.62-.38-4.52.78l-.12.53-.35,5.72s5.61,4.9,12.64,0Z"/>
  <path class="cls-8" d="m58.49,23.81l10.75,3.61s-14.32,1.64-11.51,12.7l-4.19-3.59s.08-7.77,4.95-12.72Z"/>
  <path class="cls-6" d="m47.89,31.96s.01-6.08,4.23-10.29c0,0,2.58,1.47,6.21,2.14,0,0-4.76,6.5-4.78,12.72l-5.65-4.56Z"/>
  <path class="cls-8" d="m39.47,21.67s7.02,4.21,12.64,0c0,0-4.21,5.62-4.21,9.83l-8.43-7.02v-2.81Z"/>
  <polyline class="cls-2" points="70.36 49.83 62.12 54.34 56.86 66.58 65.47 64.04 71.95 61 71.95 50.62"/>
  <polygon class="cls-5" points="48.43 69.75 56.86 66.58 62.12 54.34 53.1 58.15 48.43 69.75"/>
  <polygon class="cls-8" points="39.47 72.83 48.43 69.75 53.1 58.15 42.45 62.59 39.47 72.83"/>
  <path class="cls-5" d="m42.45,62.59l-14.52,6.28s-4.49,2.92-12.71,0c0,0-1.22.29-1.63,1.3l-.41,6.18s5.37,4.21,15.7,1.09l10.59-4.6,2.98-10.24Z"/>
  <path class="cls-10" d="m27.93,68.86l-.11-6.28s.18-1.27-3.69-1.88l-5.57.29s-3.13,1-2.85,2.08l-.02,5.78s6.1,2.66,12.25,0Z"/>
  <path class="cls-4" d="m21.97,49.33s1.95.03,2.1,2.68c0,0-3.48,1.71-4.26-.47,0,0-.25-1.91,2.16-2.21Z"/>
  <path class="cls-4" d="m19.92,53.91l-.32,1.53L2.61,47.08s-.78-1.19.85-1.63l7.71-5.03s2.25-1.16,4.56.2l4.69,9.57-.37,1.5-.12,2.21Z"/>
  <path class="cls-4" d="m24.08,52.01l.12,3.71,10.8,2.95s3.64.31,7.14-1.97l5.95-2.36s.71-.8-.31-1.62l-8.16-3.13s-.44-.61-3.94,0l-11.6,2.41Z"/>
  <polygon class="cls-2" points="87.4 51.17 87.4 61 102.17 67.03 97.1 54.34 89.55 49.73 87.4 51.17"/>
  <polygon class="cls-5" points="110.33 69.35 105.64 58.15 97.1 54.34 102.17 67.03 110.33 69.35"/>
  <polygon class="cls-2" points="118.93 72.24 116.03 62.04 105.64 58.15 110.33 69.35 118.93 72.24"/>
  <polygon class="cls-5" points="126.82 75.64 125.55 66.58 116.03 62.04 118.93 72.24 126.82 75.64"/>
  <path class="cls-2" d="m126.82,75.64s10.78,5.71,18.94,1v-6.05l-1.45-1.74s-5.32,3.56-12.32.51l-6.43-2.78,1.27,9.06Z"/>
  <path class="cls-11" d="m136.06,61.21s-3.72-.71-3.99,2.1l-.09,6.04s5.21,4.06,12.32-.51v-5.07s.45-1.31-2.27-2.56l-1.59.03-4.4-.03Z"/>
  <path class="cls-11" d="m140.5,55.13l17.31-8.43-9.24-6.59s-1.63-.95-4.89.68l-3.47,8.5-.34.27-2.85-.27s-1.5,1.83-.95,2.72l-12.1-2.58s-2.04-.75-5.03.34l-4.28,1.5-3.36,2.24,10.14,4.42s3.96,1.77,7.97-.41l6.66-2.17,4.44-.2Z"/>
  <path class="cls-2" d="m140.5,52.12s-1.54-1.04-4.44.23v8.86l4.4.03.04-9.11Z"/>
  <path class="cls-8" d="m44.31,16.47h2.6v-3.26s1.74-1.9,1.31-2.83l.07-.59-.84-.39s0-3.42-.07-3.44-3.38,0-3.38,0v3.72s-.59.05-.72.59v1.65l.48.25v.59l.43.5-.05,1.68.16.06v1.47Z"/>
  <path class="cls-8" d="m24.37,60.86l-.29-8.85s-3.5.96-4.27-.31l-.52,9.26,5.08-.11Z"/>
</svg>